<svg id="Layer_2" data-name="Layer 2" xmlns="http://www.w3.org/2000/svg" xmlns:xlink="http://www.w3.org/1999/xlink" viewBox="0 0 400 300"><defs><linearGradient id="linear-gradient" x1="149.16" y1="214.81" x2="159.17" y2="198.12" gradientUnits="userSpaceOnUse"><stop offset="0" stop-opacity="0"/><stop offset="0.99" stop-color="#1a1a1a"/></linearGradient><linearGradient id="linear-gradient-2" x1="197.28" y1="243.17" x2="247.38" y2="199.75" xlink:href="#linear-gradient"/><linearGradient id="linear-gradient-3" x1="227.42" y1="170.44" x2="260.14" y2="142.09" xlink:href="#linear-gradient"/><linearGradient id="linear-gradient-4" x1="94.01" y1="179.28" x2="126.73" y2="150.92" xlink:href="#linear-gradient"/></defs><title>191-200</title><path d="M212.94,258l149.75-84a7.16,7.16,0,0,0,.27-12.32L217.79,71.74a7.16,7.16,0,0,0-7.36-.11L52,163.57a7.16,7.16,0,0,0,0,12.38l141.25,82A19.84,19.84,0,0,0,212.94,258Z" fill="#b4ee73"/><polyline points="206.35 205 166.58 226.92 110.03 194.5 147.01 171.51" opacity="0.32" fill="url(#linear-gradient)"/><polyline points="258.88 210.09 194.22 248.88 178.19 239.41 237.92 201.22" opacity="0.32" fill="url(#linear-gradient-2)"/><polyline points="271.62 153.41 233.01 176.43 210.99 163.41 245.54 141.93" opacity="0.32" fill="url(#linear-gradient-3)"/><path d="M325,161.51l-1.75,3.79c-.16-.15-.27-.3-.45-.44-8.33-6.79-18.79-.47-24.44,3.1,0,0-35.7,19.93-40.16,23.5-3.44,2.75-25.07,20-34.82,27.75l-.38-1.59L208.59,225s.15,5.41,0,5.84l0,0a2.06,2.06,0,0,0,.5,2,2.11,2.11,0,0,0,2.64.28l10.33-6.71a1.91,1.91,0,0,1,.28-.15l40.92-18.09c12.79-5.65,52.22-29,52.92-29.61,1.56-1.26,8.41-5.13,8.81-9.37h0Z" fill="#c8d2f5"/><path d="M323.3,165.31c-.16-.15-.27-.3-.45-.44-5.42-4.41-11.72-3.28-17-1a21.23,21.23,0,0,1,6,7.51,1.38,1.38,0,0,1,1.8,1.32v7.37c1.53-.92,2.47-1.49,2.57-1.57,1.56-1.26,8.41-5.13,8.81-9.37h0l.07-7.07Z" fill="#0e577f"/><path d="M218.7,216.53l-9.22,6.55a2.11,2.11,0,0,0-.27,3.21h0a2.11,2.11,0,0,0,2.64.28l10.33-6.71a1.91,1.91,0,0,1,.28-.15l40.92-18.09c12.79-5.65,52.22-29,52.92-29.61,2.08-1.68,13.57-8,6.63-13.66-8.33-6.79-18.79-.47-24.44,3.1,0,0-35.7,19.93-40.16,23.5s-38.12,30.38-39.52,31.5Z" fill="#f8f6ff"/><path d="M295.08,163.4c6,3.68,12.33,6.91,18.56,10.25,1.59-1,2.56-1.54,2.66-1.63,2.08-1.68,13.57-8,6.63-13.66-8.33-6.79-18.79-.47-24.44,3.1L295,163.38Z" fill="#0071bc"/><path d="M222.17,219.87a3,3,0,0,0-3.38-3.4l-8.49,6.12c-.69.5-1.66,1-1.75,1.92s0,1.81,0,2.67l0,4.23c.85,3.31,3.22,1.68,3.22,1.68l10.4-6.71A59,59,0,0,1,222.17,219.87Z" fill="#9d9da0"/><path d="M222.13,220.93c0-.35,0-.69,0-1.06a3,3,0,0,0-3.38-3.4l-8.49,6.12c-.69.5-1.66,1-1.75,1.92a10.41,10.41,0,0,0,0,1.5,1.88,1.88,0,0,0,.77.58C213.14,226.85,218.55,223.24,222.13,220.93Z" fill="#ccc"/><polygon points="293.79 166.25 306.83 174.16 298.22 179.43 285.26 171.62 293.79 166.25" fill="#c8d2f5"/><path d="M282,179.79l-14.38,9c-2.15,1.35.6,4.17,2.75,2.82l14.38-9C286.86,181.27,284.11,178.44,282,179.79Z" fill="#ccc"/><path d="M184.78,217.44l42.8-24a6.28,6.28,0,0,0,.23-10.82L186.6,157.07a11.45,11.45,0,0,0-11.78-.17l-47.66,27.66a4.91,4.91,0,0,0,0,8.5L169,217.33A15.92,15.92,0,0,0,184.78,217.44Z" fill="#9fb0dd"/><path d="M184.78,215.9l42.8-24a6.28,6.28,0,0,0,.23-10.82L186.6,155.52a11.45,11.45,0,0,0-11.78-.17L127.16,183a4.91,4.91,0,0,0,0,8.5L169,215.78A15.92,15.92,0,0,0,184.78,215.9Z" fill="#c7d0ef"/><line x1="152.43" y1="168.37" x2="209.8" y2="201.49" fill="#c8d2f5" stroke="#9d9db2" stroke-miterlimit="10" opacity="0.58"/><ellipse cx="152.47" cy="181.24" rx="5.5" ry="2.96" fill="#ffbc5a"/><path d="M158,179.38v2.16s-3.25,2-5.5,1.81-5.5-2.11-5.5-2.11v-1.86" fill="#ffbc5a"/><ellipse cx="152.47" cy="179.38" rx="5.5" ry="2.96" fill="#ffe9ca"/><path d="M149.45,177.5l7.36,3.85" fill="#ffbc5a"/><path d="M149,177.11l-.27.12h0l8.08,4.23.12-.23Z" fill="#ffbc5a"/><ellipse cx="163.98" cy="187.47" rx="5.5" ry="2.96" fill="#ffbc5a"/><path d="M169.48,185.61v2.16s-3.25,2-5.5,1.81-5.5-2.11-5.5-2.11v-1.86" fill="#ffbc5a"/><ellipse cx="163.98" cy="185.61" rx="5.5" ry="2.96" fill="#ffe9ca"/><path d="M161,183.73l7.36,3.85" fill="#ffbc5a"/><path d="M160.49,183.33l-.27.12h0l8.08,4.23.12-.23Z" fill="#ffbc5a"/><ellipse cx="176.11" cy="193.4" rx="5.5" ry="2.96" fill="#ffbc5a"/><path d="M181.61,191.54v2.16s-3.25,2-5.5,1.81-5.5-2.11-5.5-2.11v-1.86" fill="#ffbc5a"/><ellipse cx="176.11" cy="191.54" rx="5.5" ry="2.96" fill="#ffe9ca"/><path d="M173.09,189.66l7.36,3.85" fill="#ffbc5a"/><path d="M172.62,189.26l-.27.12h0l8.08,4.23.12-.23Z" fill="#ffbc5a"/><ellipse cx="188" cy="201.17" rx="5.5" ry="2.96" fill="#ffbc5a"/><path d="M193.51,199.32v2.16s-3.25,2-5.5,1.81-5.5-2.11-5.5-2.11v-1.86" fill="#ffbc5a"/><ellipse cx="188" cy="199.32" rx="5.5" ry="2.96" fill="#ffe9ca"/><path d="M185,197.43l7.36,3.85" fill="#ffbc5a"/><path d="M184.51,197l-.27.12h0l8.08,4.23.12-.23Z" fill="#ffbc5a"/><ellipse cx="139.91" cy="187.16" rx="5.5" ry="2.96" fill="#ffbc5a"/><path d="M145.41,185.3v2.16s-3.25,2-5.5,1.81-5.5-2.11-5.5-2.11V185.3" fill="#ffbc5a"/><ellipse cx="139.91" cy="185.3" rx="5.5" ry="2.96" fill="#ffe9ca"/><path d="M136.89,183.42l7.36,3.85" fill="#ffbc5a"/><path d="M136.42,183l-.27.12h0l8.08,4.23.12-.23Z" fill="#ffbc5a"/><ellipse cx="150.91" cy="193.39" rx="5.5" ry="2.96" fill="#ffbc5a"/><path d="M156.42,191.53v2.16s-3.25,2-5.5,1.81-5.5-2.11-5.5-2.11v-1.86" fill="#ffbc5a"/><ellipse cx="150.91" cy="191.53" rx="5.5" ry="2.96" fill="#ffe9ca"/><path d="M147.89,189.64l7.36,3.85" fill="#ffbc5a"/><path d="M147.42,189.25l-.27.12h0l8.08,4.23.12-.23Z" fill="#ffbc5a"/><ellipse cx="163.98" cy="201.02" rx="5.5" ry="2.96" fill="#ffbc5a"/><path d="M169.48,199.16v2.16s-3.25,2-5.5,1.81-5.5-2.11-5.5-2.11v-1.86" fill="#ffbc5a"/><ellipse cx="163.98" cy="199.16" rx="5.5" ry="2.96" fill="#ffe9ca"/><path d="M161,197.27l7.36,3.85" fill="#ffbc5a"/><path d="M160.49,196.88l-.27.12h0l8.08,4.23.12-.23Z" fill="#ffbc5a"/><ellipse cx="176.11" cy="207.96" rx="5.5" ry="2.96" fill="#ffbc5a"/><path d="M181.61,206.1v2.16s-3.25,2-5.5,1.81-5.5-2.11-5.5-2.11V206.1" fill="#ffbc5a"/><ellipse cx="176.11" cy="206.1" rx="5.5" ry="2.96" fill="#ffe9ca"/><path d="M173.09,204.22l7.36,3.85" fill="#ffbc5a"/><path d="M172.62,203.82l-.27.12h0l8.08,4.23.12-.23Z" fill="#ffbc5a"/><ellipse cx="182.71" cy="164" rx="5.5" ry="2.96" fill="#ffbc5a"/><path d="M188.22,162.14v2.16s-3.25,2-5.5,1.81-5.5-2.11-5.5-2.11v-1.86" fill="#ffbc5a"/><ellipse cx="182.71" cy="162.14" rx="5.5" ry="2.96" fill="#ffe9ca"/><path d="M179.69,160.26l7.36,3.85" fill="#ffbc5a"/><path d="M179.22,159.86,179,160h0l8.08,4.23.12-.23Z" fill="#ffbc5a"/><ellipse cx="194.22" cy="170.22" rx="5.5" ry="2.96" fill="#ffbc5a"/><path d="M199.73,168.37v2.16s-3.25,2-5.5,1.81-5.5-2.11-5.5-2.11v-1.86" fill="#ffbc5a"/><ellipse cx="194.22" cy="168.37" rx="5.5" ry="2.96" fill="#ffe9ca"/><path d="M191.2,166.48l7.36,3.85" fill="#ffbc5a"/><path d="M190.73,166.09l-.27.12h0l8.08,4.23.12-.23Z" fill="#ffbc5a"/><ellipse cx="206.35" cy="176.16" rx="5.5" ry="2.96" fill="#ffbc5a"/><path d="M211.86,174.3v2.16s-3.25,2-5.5,1.81-5.5-2.11-5.5-2.11V174.3" fill="#ffbc5a"/><ellipse cx="206.35" cy="174.3" rx="5.5" ry="2.96" fill="#ffe9ca"/><path d="M203.33,172.41l7.36,3.85" fill="#ffbc5a"/><path d="M202.86,172l-.27.12h0l8.08,4.23.12-.23Z" fill="#ffbc5a"/><ellipse cx="218.24" cy="183.93" rx="5.5" ry="2.96" fill="#ffbc5a"/><path d="M223.75,182.07v2.16s-3.25,2-5.5,1.81-5.5-2.11-5.5-2.11v-1.86" fill="#ffbc5a"/><ellipse cx="218.24" cy="182.07" rx="5.5" ry="2.96" fill="#ffe9ca"/><path d="M215.22,180.19l7.36,3.85" fill="#ffbc5a"/><path d="M214.75,179.79l-.27.12h0l8.08,4.23.12-.23Z" fill="#ffbc5a"/><ellipse cx="170.15" cy="169.91" rx="5.5" ry="2.96" fill="#ffbc5a"/><path d="M175.65,168.05v2.16s-3.25,2-5.5,1.81-5.5-2.11-5.5-2.11v-1.86" fill="#ffbc5a"/><ellipse cx="170.15" cy="168.05" rx="5.5" ry="2.96" fill="#ffe9ca"/><path d="M167.13,166.17l7.36,3.85" fill="#ffbc5a"/><path d="M166.66,165.78l-.27.12h0l8.08,4.23.12-.23Z" fill="#ffbc5a"/><ellipse cx="181.16" cy="176.14" rx="5.5" ry="2.96" fill="#ffbc5a"/><path d="M186.66,174.28v2.16s-3.25,2-5.5,1.81-5.5-2.11-5.5-2.11v-1.86" fill="#ffbc5a"/><ellipse cx="181.16" cy="174.28" rx="5.5" ry="2.96" fill="#ffe9ca"/><path d="M178.14,172.4l7.36,3.85" fill="#ffbc5a"/><path d="M177.67,172l-.27.12h0l8.08,4.23.12-.23Z" fill="#ffbc5a"/><ellipse cx="194.22" cy="183.77" rx="5.5" ry="2.96" fill="#ffbc5a"/><path d="M199.73,181.91v2.16s-3.25,2-5.5,1.81-5.5-2.11-5.5-2.11v-1.86" fill="#ffbc5a"/><ellipse cx="194.22" cy="181.91" rx="5.5" ry="2.96" fill="#ffe9ca"/><path d="M191.2,180l7.36,3.85" fill="#ffbc5a"/><path d="M190.73,179.63l-.27.12h0L198.5,184l.12-.23Z" fill="#ffbc5a"/><ellipse cx="206.35" cy="190.71" rx="5.5" ry="2.96" fill="#ffbc5a"/><path d="M211.86,188.86V191s-3.25,2-5.5,1.81-5.5-2.11-5.5-2.11v-1.86" fill="#ffbc5a"/><ellipse cx="206.35" cy="188.86" rx="5.5" ry="2.96" fill="#ffe9ca"/><path d="M203.33,187l7.36,3.85" fill="#ffbc5a"/><path d="M202.86,186.58l-.27.12h0l8.08,4.23.12-.23Z" fill="#ffbc5a"/><polyline points="138.21 162.25 99.6 185.27 77.58 172.25 112.13 150.77" opacity="0.32" fill="url(#linear-gradient-4)"/><path d="M207.58,63.56l-17.2-9.08a4,4,0,0,0-1.36-.72h0a3.87,3.87,0,0,0-3.05.36L109.41,97.79a3.93,3.93,0,0,0-2,3.44l.37,52.13a3.87,3.87,0,0,0,1.26,2.85h0a4,4,0,0,0,1.73.93l16.91,9.12s6.44-15.28,3-18.49a2,2,0,0,0-.79-.42l60-34.83a3.93,3.93,0,0,0,2-3.4V70l.53,3.07Z" fill="#8ecc94"/><path d="M207.58,63.56l-17.2-9.08a4,4,0,0,0-1.36-.72h0a3.87,3.87,0,0,0-3.05.36L109.41,97.79a3.93,3.93,0,0,0-2,3.44l.37,52.13a3.87,3.87,0,0,0,1.26,2.85h0a4,4,0,0,0,1.73.93l16.91,9.12s6.44-15.28,3-18.49a2,2,0,0,0-.79-.42l60-34.83a3.93,3.93,0,0,0,2-3.4V70l.53,3.07Z" fill="#272322" opacity="0.22"/><path d="M126.92,107.29l76.37-44a3.93,3.93,0,0,1,5.89,3.39l.22,51.59a3.93,3.93,0,0,1-1.94,3.4l-76,44.54a3.93,3.93,0,0,1-5.91-3.34l-.59-52.13A3.93,3.93,0,0,1,126.92,107.29Z" fill="#8ecc94"/><path d="M126.92,107.29l76.37-44a3.93,3.93,0,0,1,5.89,3.39l.22,51.59a3.93,3.93,0,0,1-1.94,3.4l-76,44.54a3.93,3.93,0,0,1-5.91-3.34l-.59-52.13A3.93,3.93,0,0,1,126.92,107.29Z" fill="#fff" opacity="0.37"/><ellipse cx="140.81" cy="89.09" rx="4.35" ry="1.89" fill="#272322"/><ellipse cx="170.82" cy="74.47" rx="4.35" ry="1.89" fill="#272322"/><path d="M166.49,73.4a5.71,5.71,0,0,0,.16,1.57c1.06.26,2.25-.5,3.32-.64,1.4-.19,4.53,1.34,5.21.14,0-1.85-.65-5.56-2.14-6.84-3-2.6-7.5-.82-10.5.74-1.95,1-3.88,2.06-5.8,3.12q-3.54,1.94-7.06,3.92c-2.17,1.22-4.24,2.58-6.52,3.6a13.52,13.52,0,0,0-2.75,1.62,9.86,9.86,0,0,0-3.95,8.45h8.71v-3.9a3.37,3.37,0,0,1,1.51-3.28c1.89-1.26,18-9.86,18.88-9.6S166.37,72.42,166.49,73.4Z" fill="#272322"/><polygon points="161.34 98.12 161.34 134.81 174.15 126.96 174.15 91.05 161.34 98.12" fill="#f15a24"/><polygon points="152.58 114.9 152.58 127.35 182.91 109.57 182.91 97.34 152.58 114.9" fill="#f15a24"/><path d="M219.59,155.5s1-16.07,1.38-20c.34-3.59,1.54-19.38,11.41-24.37,12.48-6.3,26.87-14.49,40.17-10.68,10.77,3.09,14.45,40.38,14.33,42.87C286.67,147.75,253.24,171.38,219.59,155.5Z" fill="#fff"/><path d="M241.9,106.3c-3.26,1.57-6.45,3.24-9.52,4.79-9.88,5-11.07,20.78-11.41,24.37-.38,4-1.38,20-1.38,20,11.05,5.21,20.37,7.3,40.74,3.68C260.34,157.38,246.8,124,241.9,106.3Z" fill="#d4dee8"/><path d="M272.55,100.41a26.73,26.73,0,0,0-9.53-.87,423.23,423.23,0,0,1,10.51,54.18c8.17-4.08,13.27-8.71,13.36-10.44C287,140.8,283.33,103.5,272.55,100.41Z" fill="#d4dee8"/><ellipse cx="270.98" cy="128.1" rx="4.83" ry="4.34" transform="translate(69.32 349.85) rotate(-73.02)" fill="#9e9e9e"/><path d="M269.89,125.11c.41-.27-.33-26.07-15.23-24.52S241,113.19,241.55,118.87l-2.4.34s-2.8-19.72,16.23-19.76,15.94,27.25,15.94,27.25" fill="#9e9e9e"/><path d="M241.57,143.08c-2.31-.08-6,0-7.94-1.31s-1.65-3-1.45-5.3c.47-5.29.88-15.11,7-17.26,5.3-1.87,9.77,2,11.65,6.64,1.22,3,3.22,8,2.47,11.34-.59,2.68-3.49,4.09-5.82,5.11-.44.19-.82-.45-.38-.64,2.73-1.19,5.6-2.79,5.45-6.11a29.47,29.47,0,0,0-2-8.44c-1.83-5-6.66-9.58-12-6.68-4.41,2.38-4.91,10.78-5.4,15.13-.33,2.83-.69,4.67,2.46,6.06,1.75.77,4.17.66,6.07.73.48,0,.48.76,0,.75Z" fill="#4d4d4d"/><path d="M248.75,141.25c0,.41.56,1.07,0,1.35s-2.36,1.07-2.53.48-.45-1.49,0-1.83S248.75,139.9,248.75,141.25Z" fill="#4a2b0f"/><path d="M242.55,142.53c-.09.4.32,1.17-.29,1.32s-2.54.54-2.58-.07-.12-1.55.39-1.79S242.84,141.21,242.55,142.53Z" fill="#4a2b0f"/><path d="M266.7,79.15S269.35,77,270.88,72s-1-12.27-6.45-12.94-7.09,2.13-7.09,2.13S237.12,57.6,234,73.45h0c-.57,4.44-3,20.55,10.14,24.08s8.42-15.13,8.42-15.13" fill="#4b1b13"/><path d="M267.27,75.65s-.05,10.44,0,14.32c.06,4.09-1.67,15.13-8.39,14.78s-13.61-8.17-13.61-10c0,0-6.79-4.23-3-7.48s4.14,2.25,4.14,2.25,2.08-3,2.22-11.15A35.46,35.46,0,0,0,267.27,75.65Z" fill="#ffac73"/><path d="M245.57,105.61c3.43,3.16,9,3.75,14.16,3a1.68,1.68,0,0,0,1.55-1.46c.08-1.58.18-3.16.32-4.74l-17.73-8.67,1.37,11.3S245.36,105.27,245.57,105.61Z" fill="#ffac73"/><path d="M257.73,108.83c.69-.05,1.38-.12,2.06-.22a1.62,1.62,0,0,0,1.49-1.41c0-.82.08-1.64.14-2.47-3.75,0-10.43-.88-14-7.84A15.16,15.16,0,0,0,257.73,108.83Z" fill="#e5894a"/><ellipse cx="265.1" cy="86.71" rx="3.52" ry="4.78" fill="none" stroke="#42210b" stroke-miterlimit="10" stroke-width="0.75"/><ellipse cx="255.2" cy="88.98" rx="3.9" ry="4.78" fill="none" stroke="#42210b" stroke-miterlimit="10" stroke-width="0.75"/><line x1="261.58" y1="87.86" x2="259.1" y2="88.21" fill="none" stroke="#42210b" stroke-miterlimit="10" stroke-width="0.75"/><line x1="251.3" y1="88.98" x2="245.78" y2="87.6" fill="none" stroke="#42210b" stroke-miterlimit="10" stroke-width="0.75"/><path d="M241.3,160.92c-.92-2.18-2.29-14.1-2.29-14.1v13.77Z" fill="#9e9e9e"/></svg>