<svg id="Layer_1" data-name="Layer 1" xmlns="http://www.w3.org/2000/svg" viewBox="0 0 400 300"><polygon points="337.25 79.72 74.79 79.72 74.79 218.57 110.07 218.57 122.79 255.77 135.5 218.57 337.25 218.57 337.25 79.72" fill="#f2f2f2"/><path d="M240.2,104.23S219.77,109,215.41,131s-4.69,41.33-16.69,42-20.67-45.33-20.67-45.33l-9,2.33s9.32,100,58,53.33S240.2,104.23,240.2,104.23Z" fill="#f4a28c"/><path d="M241.83,103.54S208.06,106.91,206,163.6l29.77,17.6Z" fill="#84d3c5"/><path d="M241.83,103.54S208.06,106.91,206,163.6l29.77,17.6Z" fill="#fff" opacity="0.46"/><path d="M259.7,72.46s-1.43,6.86-.81,11.61a3.53,3.53,0,0,0,4,3c2.39-.35,5.52-1.51,6.73-5.09l2.8-5.84a6.28,6.28,0,0,0-2-7C266.84,65.88,260.36,68.24,259.7,72.46Z" fill="#f4a28c"/><polygon points="271.88 77.23 272.79 100.18 260.11 99.78 264.54 83.24 271.88 77.23" fill="#f4a28c"/><path d="M259.32,72.28a6.81,6.81,0,0,0,2.07.68,28.37,28.37,0,0,0,6.47.26,5.85,5.85,0,0,0-.75,6.37,4.74,4.74,0,0,0,5.48,2.56l1-9a7.16,7.16,0,0,0-2.84-6.75,26.65,26.65,0,0,0-2.82-1.81" fill="#24285b"/><path d="M266.39,79.3s.37-2.68,2.36-2.23,1.47,4.31-1.31,4.35Z" fill="#f4a28c"/><path d="M259,76.83l-2.25,2.45a1.12,1.12,0,0,0,.49,1.83l2.6.82Z" fill="#f4a28c"/><path d="M263.42,86.82a8.33,8.33,0,0,0,4.36-1.95S267.1,89,262,92.6Z" fill="#ce8172" opacity="0.31"/><path d="M272.79,100.18l-12.68-.4s-34,.53-36.09,25.3,12.38,44.09,7.55,63.42l46.11,5.88S353.27,118.43,272.79,100.18Z" fill="#84d3c5"/><path d="M278.83,116.9s-15.6,12.48-5.22,34.87,4,29.49-11.58,25.36-21.83-21-21.83-21l-7.64,23.67a31.42,31.42,0,0,1-1,8.67l46.11,5.88,1.67-1.75,20.88-29.35Z" opacity="0.08"/><rect x="209.26" y="136.02" width="31.83" height="46.26" transform="translate(-16.86 27.04) rotate(-6.62)" fill="#ffd200"/><path d="M228.11,159.15s-8.47,3.94-1,10.91,5.42,11.52,5.42,11.52l11.1-1.29-.88-7.53-11.2-16.31Z" opacity="0.08"/><rect x="213.85" y="132.97" width="16.57" height="6.49" transform="translate(-14.23 26.54) rotate(-6.62)" fill="#ffd200"/><rect x="213.85" y="132.97" width="16.57" height="6.49" transform="translate(-14.23 26.54) rotate(-6.62)" fill="#fff" opacity="0.46"/><path d="M277.45,133.7c-7.83-15.11,10.46-30.26,24-19.92,7.1,5.43,13.78,13.28,15.9,24.28,5.14,26.58,2.12,50.44-16,57.38S235.79,168,235.79,168l6-10s41.38,29.6,51.34,9.37C299.45,154.62,284.19,146.74,277.45,133.7Z" fill="#f4a28c"/><polygon points="231.57 188.5 230.02 218.57 284.83 218.57 277.68 194.38 231.57 188.5" fill="#84d3c5"/><polygon points="231.57 188.5 230.02 218.57 284.83 218.57 277.68 194.38 231.57 188.5" opacity="0.08"/><path d="M257.34,69S255,73.21,262.87,74l9.92,5.4s5.83-1.45,7.61-5.17,1.37-8.49-4.34-10.7S255,54.4,257.34,69Z" fill="#84d3c5"/><path d="M258.16,81.93s-1.33,5.67,2.93,6.26,8.09-7.5,8.09-7.5-3.57.54-2.34-2.7C266.84,78,262,81.42,258.16,81.93Z" fill="#84d3c5"/><path d="M298.42,111.16s24.2,6.14,22.32,55.5h-29.1s-.07-6.7-6.81-14.47C273.09,138.66,262,101.13,298.42,111.16Z" fill="#84d3c5"/><path d="M298.42,111.16s24.2,6.14,22.32,55.5h-29.1s-.07-6.7-6.81-14.47C273.09,138.66,262,101.13,298.42,111.16Z" fill="#fff" opacity="0.46"/><path d="M241.83,158s-4.83-10.74-8.4-10.91-5.11,3.07-4.43,7.32-5.3,7.54,6.79,13.56Z" fill="#24285b"/><path d="M169.72,135.52l9.09-4.16s3.43-10.49,0-10.83-6.05,3.41-9.76,1.87-12.39-.69-7.28,5.61S169.72,135.52,169.72,135.52Z" fill="#24285b"/><rect x="163.12" y="102.18" width="14.29" height="21.55" fill="#84d3c5"/><rect x="171.5" y="79.83" width="18.11" height="5.46" rx="2.73" transform="translate(163.05 -115.2) rotate(60.37)" fill="#84d3c5"/><rect x="171.5" y="79.83" width="18.11" height="5.46" rx="2.73" transform="translate(163.05 -115.2) rotate(60.37)" opacity="0.13"/><rect x="93.84" y="134.23" width="51.11" height="66.17" fill="#e6e6e6"/><rect x="163.12" y="110.13" width="14.29" height="9.17" fill="#fff" opacity="0.46"/><rect x="117.27" y="147.3" width="4.31" height="11.77" fill="#84d3c5"/><rect x="117.27" y="147.3" width="4.31" height="11.77" transform="translate(272.62 33.76) rotate(90)" fill="#84d3c5"/><rect x="100.3" y="138.57" width="10.31" height="5.78" opacity="0.13"/><rect x="103.01" y="162.99" width="34.22" height="18.23" fill="#fff" opacity="0.33"/><rect x="103.01" y="184.59" width="11.7" height="3.62" fill="#fff"/><path d="M175.38,102.18s7.66-5.26-2-9.58,1-14.79-7.91-20.92-22.22.53-26.81-11.73-25.47-13.27-33.16,0S94.19,95.13,112.32,92.6s40.34-6.88,39.32,5.38,11.48,4.2,11.48,4.2Z" fill="#84d3c5"/><path d="M175.38,102.18s7.66-5.26-2-9.58,1-14.79-7.91-20.92-22.22.53-26.81-11.73-25.47-13.27-33.16,0S94.19,95.13,112.32,92.6s40.34-6.88,39.32,5.38,11.48,4.2,11.48,4.2Z" fill="#fff" opacity="0.49"/><path d="M133.21,53.12h0a5.08,5.08,0,0,1,5.08,5.08v6.88a0,0,0,0,1,0,0H128.13a0,0,0,0,1,0,0V58.2a5.08,5.08,0,0,1,5.08-5.08Z" transform="translate(187.48 194.36) rotate(-135.79)" fill="#24285b"/><path d="M136.47,44.55h10.17a0,0,0,0,1,0,0v6.88a5.08,5.08,0,0,1-5.08,5.08h0a5.08,5.08,0,0,1-5.08-5.08V44.55a0,0,0,0,1,0,0Z" transform="translate(207.78 185.45) rotate(-135.79)" fill="#84d3c5"/><circle cx="103.99" cy="65.53" r="8.91" fill="#24285b"/><circle cx="103" cy="63.21" r="8.91" fill="#84d3c5"/><path d="M107.23,62.72l-7.5,3.22A1.6,1.6,0,0,1,98.47,63l7.5-3.21a1.59,1.59,0,1,1,1.26,2.93Z" opacity="0.07"/><rect x="125.52" y="75.6" width="12.89" height="27.19" rx="6.45" transform="matrix(0.93, 0.36, -0.36, 0.93, 41.24, -41.72)" fill="#24285b"/><rect x="128.02" y="76.57" width="12.89" height="27.19" rx="6.45" transform="translate(41.76 -42.56) rotate(21.22)" fill="#84d3c5"/><rect x="129.68" y="88.95" width="9.57" height="2.43" rx="1.21" transform="translate(41.76 -42.56) rotate(21.22)" opacity="0.07"/><circle cx="101.13" cy="87.77" r="3.14" fill="#24285b"/><circle cx="168.33" cy="55.77" r="2.63" fill="#24285b"/><circle cx="143.86" cy="70.53" r="1.48" fill="#24285b"/><circle cx="158.62" cy="89.75" r="3.66" fill="#24285b"/><circle cx="119.1" cy="51.21" r="2.03" fill="#24285b"/><circle cx="330.24" cy="80.38" r="27.71" fill="#24285b"/><polyline points="321.73 80.68 329.22 90.91 340.46 71.78" fill="none" stroke="#fff" stroke-linecap="round" stroke-linejoin="round" stroke-width="4"/></svg>